<svg width="753" height="95" viewBox="0 0 753 95" fill="none" xmlns="http://www.w3.org/2000/svg">
<path d="M43.2034 1.73599L74.4354 82.248C75.7154 85.4907 77.166 87.6667 78.7874 88.776C80.4087 89.8 81.902 90.3547 83.2674 90.44V93C81.5607 92.8293 79.47 92.744 76.9954 92.744C74.5207 92.6587 72.046 92.616 69.5714 92.616C66.2434 92.616 63.1287 92.6587 60.2274 92.744C57.326 92.744 54.9794 92.8293 53.1874 93V90.44C57.5394 90.2693 60.3127 89.544 61.5074 88.264C62.702 86.8987 62.446 84.04 60.7394 79.688L36.9314 16.072L38.9794 14.408L16.7074 72.264C15.342 75.6773 14.5314 78.5787 14.2754 80.968C14.0194 83.272 14.2327 85.1067 14.9154 86.472C15.6834 87.8373 16.9207 88.8187 18.6274 89.416C20.4194 90.0133 22.638 90.3547 25.2834 90.44V93C22.894 92.8293 20.3767 92.744 17.7314 92.744C15.1714 92.6587 12.782 92.616 10.5634 92.616C8.43004 92.616 6.59538 92.6587 5.05938 92.744C3.60871 92.744 2.24338 92.8293 0.963375 93V90.44C2.67004 90.0133 4.41938 89.032 6.21138 87.496C8.00338 85.8747 9.62471 83.144 11.0754 79.304L41.1554 1.73599C41.4967 1.73599 41.838 1.73599 42.1794 1.73599C42.5207 1.73599 42.862 1.73599 43.2034 1.73599ZM58.8194 56.136V58.696H20.6754L21.9554 56.136H58.8194ZM128.722 0.583992C134.354 0.583992 138.962 1.43733 142.546 3.144C146.216 4.76533 149.458 6.68533 152.274 8.904C153.981 10.184 155.261 10.3547 156.114 9.41599C157.053 8.392 157.693 6.04533 158.034 2.376H160.978C160.808 5.53333 160.68 9.37333 160.594 13.896C160.509 18.4187 160.466 24.392 160.466 31.816H157.522C156.925 28.1467 156.37 25.2453 155.858 23.112C155.346 20.8933 154.706 19.016 153.938 17.48C153.256 15.944 152.317 14.408 151.122 12.872C148.477 9.37333 145.149 6.85599 141.138 5.31999C137.128 3.69866 132.904 2.88799 128.466 2.88799C124.285 2.88799 120.488 3.95466 117.074 6.088C113.746 8.136 110.845 11.1227 108.37 15.048C105.981 18.9733 104.104 23.7093 102.738 29.256C101.458 34.8027 100.818 41.032 100.818 47.944C100.818 55.112 101.544 61.4693 102.994 67.016C104.445 72.4773 106.45 77.0853 109.01 80.84C111.656 84.5947 114.728 87.4533 118.226 89.416C121.81 91.2933 125.65 92.232 129.746 92.232C133.586 92.232 137.597 91.464 141.778 89.928C145.96 88.392 149.245 85.9173 151.634 82.504C153.512 80.0293 154.792 77.3413 155.474 74.44C156.242 71.5387 156.925 67.4853 157.522 62.28H160.466C160.466 70.0453 160.509 76.3173 160.594 81.096C160.68 85.7893 160.808 89.7573 160.978 93H158.034C157.693 89.3307 157.096 87.0267 156.242 86.088C155.474 85.1493 154.152 85.2773 152.274 86.472C149.117 88.6907 145.746 90.6533 142.162 92.36C138.664 93.9813 134.141 94.792 128.594 94.792C120.488 94.792 113.362 92.9573 107.218 89.288C101.16 85.6187 96.4237 80.328 93.0104 73.416C89.6824 66.504 88.0184 58.184 88.0184 48.456C88.0184 38.8987 89.7677 30.536 93.2664 23.368C96.765 16.2 101.544 10.6107 107.602 6.6C113.746 2.58933 120.786 0.583992 128.722 0.583992ZM216.847 0.583992C224.954 0.583992 232.037 2.41866 238.095 6.088C244.239 9.75733 248.975 15.048 252.303 21.96C255.717 28.7867 257.423 37.1067 257.423 46.92C257.423 56.4773 255.674 64.84 252.175 72.008C248.762 79.176 243.983 84.7653 237.839 88.776C231.695 92.7867 224.655 94.792 216.719 94.792C208.613 94.792 201.487 92.9573 195.343 89.288C189.285 85.6187 184.549 80.328 181.135 73.416C177.807 66.504 176.143 58.184 176.143 48.456C176.143 38.8987 177.893 30.536 181.391 23.368C184.89 16.2 189.669 10.6107 195.727 6.6C201.871 2.58933 208.911 0.583992 216.847 0.583992ZM216.335 2.88799C210.789 2.88799 205.967 4.80799 201.871 8.64799C197.775 12.488 194.575 17.7787 192.271 24.52C190.053 31.2613 188.943 39.0693 188.943 47.944C188.943 56.9893 190.181 64.8827 192.655 71.624C195.215 78.28 198.629 83.4427 202.895 87.112C207.247 90.696 212.026 92.488 217.231 92.488C222.778 92.488 227.599 90.568 231.695 86.728C235.791 82.888 238.949 77.5973 241.167 70.856C243.471 64.0293 244.623 56.2213 244.623 47.432C244.623 38.3013 243.343 30.408 240.783 23.752C238.309 17.096 234.938 11.976 230.671 8.392C226.405 4.72266 221.626 2.88799 216.335 2.88799ZM297.002 0.967995C301.269 0.967995 304.512 1.48 306.73 2.504C308.949 3.44266 310.912 4.50933 312.618 5.70399C313.642 6.30133 314.453 6.77067 315.05 7.112C315.733 7.368 316.373 7.49599 316.97 7.49599C317.824 7.49599 318.421 7.02666 318.762 6.088C319.189 5.14933 319.53 3.74133 319.786 1.864H322.73C322.645 3.31466 322.517 5.064 322.346 7.112C322.261 9.07467 322.176 11.72 322.09 15.048C322.09 18.2907 322.09 22.6 322.09 27.976H319.146C318.89 23.88 317.994 19.9547 316.458 16.2C314.922 12.4453 312.661 9.37333 309.674 6.98399C306.773 4.59466 302.933 3.39999 298.154 3.39999C293.632 3.39999 289.877 4.76533 286.89 7.49599C283.989 10.2267 282.538 13.8107 282.538 18.248C282.538 22.088 283.52 25.3307 285.482 27.976C287.445 30.536 290.048 32.8827 293.29 35.016C296.618 37.064 300.202 39.2827 304.042 41.672C308.48 44.4027 312.405 47.1333 315.818 49.864C319.317 52.5093 322.048 55.4533 324.01 58.696C326.058 61.9387 327.082 65.864 327.082 70.472C327.082 75.9333 325.845 80.456 323.37 84.04C320.896 87.624 317.61 90.312 313.514 92.104C309.418 93.896 304.896 94.792 299.946 94.792C295.424 94.792 291.84 94.28 289.194 93.256C286.549 92.232 284.288 91.1653 282.41 90.056C280.533 88.8613 279.082 88.264 278.058 88.264C277.205 88.264 276.565 88.7333 276.138 89.672C275.797 90.6107 275.498 92.0187 275.242 93.896H272.298C272.469 92.104 272.554 90.0133 272.554 87.624C272.64 85.1493 272.682 81.9493 272.682 78.024C272.768 74.0987 272.81 69.1493 272.81 63.176H275.754C276.096 68.296 277.034 73.0747 278.57 77.512C280.192 81.9493 282.624 85.5333 285.866 88.264C289.194 90.9093 293.589 92.232 299.05 92.232C301.866 92.232 304.512 91.6773 306.986 90.568C309.546 89.3733 311.637 87.5387 313.258 85.064C314.88 82.504 315.69 79.2187 315.69 75.208C315.69 71.7093 314.837 68.68 313.13 66.12C311.509 63.4747 309.205 61.0427 306.218 58.824C303.232 56.52 299.733 54.1733 295.722 51.784C291.712 49.3093 287.957 46.792 284.458 44.232C280.96 41.672 278.144 38.728 276.01 35.4C273.962 31.9867 272.938 27.8907 272.938 23.112C272.938 18.0773 274.048 13.9387 276.266 10.696C278.57 7.368 281.557 4.93599 285.226 3.39999C288.896 1.77866 292.821 0.967995 297.002 0.967995ZM409.135 2.376C408.794 5.61867 408.538 8.776 408.367 11.848C408.282 14.8347 408.239 17.1387 408.239 18.76C408.239 20.808 408.282 22.728 408.367 24.52C408.453 26.312 408.538 27.8907 408.623 29.256H405.679C405.082 23.2827 404.271 18.5893 403.247 15.176C402.223 11.6773 400.431 9.15999 397.871 7.62399C395.311 6.08799 391.343 5.31999 385.967 5.31999H379.055V78.152C379.055 81.5653 379.354 84.1253 379.951 85.832C380.634 87.5387 381.914 88.6907 383.791 89.288C385.669 89.8853 388.399 90.2693 391.983 90.44V93C389.765 92.8293 386.949 92.744 383.535 92.744C380.122 92.6587 376.666 92.616 373.167 92.616C369.327 92.616 365.701 92.6587 362.287 92.744C358.959 92.744 356.271 92.8293 354.223 93V90.44C357.807 90.2693 360.538 89.8853 362.415 89.288C364.293 88.6907 365.53 87.5387 366.127 85.832C366.81 84.1253 367.151 81.5653 367.151 78.152V5.31999H360.239C354.949 5.31999 350.981 6.08799 348.335 7.62399C345.775 9.15999 343.983 11.6773 342.959 15.176C341.935 18.5893 341.125 23.2827 340.527 29.256H337.583C337.754 27.8907 337.839 26.312 337.839 24.52C337.925 22.728 337.967 20.808 337.967 18.76C337.967 17.1387 337.882 14.8347 337.711 11.848C337.626 8.776 337.413 5.61867 337.071 2.376C340.655 2.46133 344.538 2.54666 348.719 2.632C352.986 2.71733 357.253 2.75999 361.519 2.75999C365.786 2.75999 369.669 2.75999 373.167 2.75999C376.666 2.75999 380.506 2.75999 384.687 2.75999C388.954 2.75999 393.221 2.71733 397.487 2.632C401.754 2.54666 405.637 2.46133 409.135 2.376ZM448.203 1.73599L479.435 82.248C480.715 85.4907 482.166 87.6667 483.787 88.776C485.409 89.8 486.902 90.3547 488.267 90.44V93C486.561 92.8293 484.47 92.744 481.995 92.744C479.521 92.6587 477.046 92.616 474.571 92.616C471.243 92.616 468.129 92.6587 465.227 92.744C462.326 92.744 459.979 92.8293 458.187 93V90.44C462.539 90.2693 465.313 89.544 466.507 88.264C467.702 86.8987 467.446 84.04 465.739 79.688L441.931 16.072L443.979 14.408L421.707 72.264C420.342 75.6773 419.531 78.5787 419.275 80.968C419.019 83.272 419.233 85.1067 419.915 86.472C420.683 87.8373 421.921 88.8187 423.627 89.416C425.419 90.0133 427.638 90.3547 430.283 90.44V93C427.894 92.8293 425.377 92.744 422.731 92.744C420.171 92.6587 417.782 92.616 415.563 92.616C413.43 92.616 411.595 92.6587 410.059 92.744C408.609 92.744 407.243 92.8293 405.963 93V90.44C407.67 90.0133 409.419 89.032 411.211 87.496C413.003 85.8747 414.625 83.144 416.075 79.304L446.155 1.73599C446.497 1.73599 446.838 1.73599 447.179 1.73599C447.521 1.73599 447.862 1.73599 448.203 1.73599ZM463.819 56.136V58.696H425.675L426.955 56.136H463.819ZM570.744 2.376V4.936C567.843 5.02133 565.624 5.448 564.088 6.216C562.638 6.984 561.656 8.22133 561.144 9.92799C560.632 11.6347 560.376 14.0667 560.376 17.224V93.64C559.864 93.64 559.352 93.64 558.84 93.64C558.414 93.64 557.944 93.64 557.432 93.64L503.672 10.568V78.152C503.672 81.224 503.928 83.656 504.44 85.448C505.038 87.1547 506.147 88.392 507.768 89.16C509.475 89.8427 511.992 90.2693 515.32 90.44V93C513.784 92.8293 511.779 92.744 509.304 92.744C506.83 92.6587 504.483 92.616 502.264 92.616C500.131 92.616 497.955 92.6587 495.736 92.744C493.603 92.744 491.811 92.8293 490.36 93V90.44C493.262 90.2693 495.438 89.8427 496.888 89.16C498.424 88.392 499.448 87.1547 499.96 85.448C500.472 83.656 500.728 81.224 500.728 78.152V15.944C500.728 12.7867 500.472 10.4827 499.96 9.032C499.448 7.496 498.424 6.472 496.888 5.96C495.438 5.36266 493.262 5.02133 490.36 4.936V2.376C491.811 2.46133 493.603 2.54666 495.736 2.632C497.955 2.71733 500.131 2.75999 502.264 2.75999C504.142 2.75999 505.934 2.71733 507.64 2.632C509.347 2.54666 510.883 2.46133 512.248 2.376L557.432 72.008V17.224C557.432 14.0667 557.134 11.6347 556.536 9.92799C556.024 8.22133 554.915 6.984 553.208 6.216C551.587 5.448 549.112 5.02133 545.784 4.936V2.376C547.32 2.46133 549.326 2.54666 551.8 2.632C554.36 2.71733 556.707 2.75999 558.84 2.75999C561.059 2.75999 563.235 2.71733 565.368 2.632C567.587 2.54666 569.379 2.46133 570.744 2.376ZM622.612 0.583992C628.159 0.583992 632.639 1.43733 636.052 3.144C639.466 4.76533 642.666 6.68533 645.652 8.904C646.762 9.75733 647.615 10.184 648.212 10.184C649.834 10.184 650.9 7.58133 651.412 2.376H654.356C654.186 5.53333 654.058 9.37333 653.972 13.896C653.887 18.4187 653.844 24.392 653.844 31.816H650.9C650.303 28.232 649.578 24.776 648.724 21.448C647.871 18.12 646.463 15.2613 644.5 12.872C642.026 9.71466 638.783 7.28266 634.772 5.576C630.762 3.78399 626.623 2.88799 622.356 2.88799C618.09 2.88799 614.207 3.95466 610.708 6.088C607.295 8.136 604.351 11.1227 601.876 15.048C599.402 18.9733 597.482 23.7093 596.116 29.256C594.836 34.7173 594.196 40.904 594.196 47.816C594.196 63.176 596.671 74.44 601.62 81.608C606.57 88.6907 614.25 92.232 624.66 92.232C627.732 92.232 630.378 91.8053 632.596 90.952C634.9 90.0133 636.692 89.1173 637.972 88.264C639.594 87.1547 640.618 86.1307 641.044 85.192C641.471 84.168 641.684 82.8453 641.684 81.224V68.936C641.684 65.4373 641.343 62.8347 640.66 61.128C639.978 59.4213 638.698 58.2693 636.82 57.672C635.028 57.0747 632.34 56.7333 628.756 56.648V54.088C630.292 54.1733 632.084 54.2587 634.132 54.344C636.18 54.344 638.314 54.3867 640.532 54.472C642.836 54.472 644.927 54.472 646.804 54.472C649.62 54.472 652.138 54.4293 654.356 54.344C656.66 54.2587 658.58 54.1733 660.116 54.088V56.648C658.239 56.7333 656.831 57.032 655.892 57.544C654.954 58.056 654.314 59.08 653.972 60.616C653.716 62.152 653.588 64.4987 653.588 67.656V93H651.028C650.943 91.5493 650.602 89.9707 650.004 88.264C649.492 86.5573 648.682 85.704 647.572 85.704C647.06 85.704 646.548 85.832 646.036 86.088C645.524 86.344 644.628 86.9413 643.348 87.88C640.532 90.0133 637.546 91.72 634.388 93C631.231 94.1947 627.562 94.792 623.38 94.792C614.591 94.792 607.039 93 600.724 89.416C594.495 85.7467 589.716 80.4987 586.388 73.672C583.06 66.8453 581.396 58.696 581.396 49.224C581.396 39.24 583.188 30.6213 586.772 23.368C590.356 16.1147 595.22 10.5253 601.364 6.6C607.594 2.58933 614.676 0.583992 622.612 0.583992ZM711.972 0.583992C720.079 0.583992 727.162 2.41866 733.22 6.088C739.364 9.75733 744.1 15.048 747.428 21.96C750.842 28.7867 752.548 37.1067 752.548 46.92C752.548 56.4773 750.799 64.84 747.3 72.008C743.887 79.176 739.108 84.7653 732.964 88.776C726.82 92.7867 719.78 94.792 711.844 94.792C703.738 94.792 696.612 92.9573 690.468 89.288C684.41 85.6187 679.674 80.328 676.26 73.416C672.932 66.504 671.268 58.184 671.268 48.456C671.268 38.8987 673.018 30.536 676.516 23.368C680.015 16.2 684.794 10.6107 690.852 6.6C696.996 2.58933 704.036 0.583992 711.972 0.583992ZM711.46 2.88799C705.914 2.88799 701.092 4.80799 696.996 8.64799C692.9 12.488 689.7 17.7787 687.396 24.52C685.178 31.2613 684.068 39.0693 684.068 47.944C684.068 56.9893 685.306 64.8827 687.78 71.624C690.34 78.28 693.754 83.4427 698.02 87.112C702.372 90.696 707.151 92.488 712.356 92.488C717.903 92.488 722.724 90.568 726.82 86.728C730.916 82.888 734.074 77.5973 736.292 70.856C738.596 64.0293 739.748 56.2213 739.748 47.432C739.748 38.3013 738.468 30.408 735.908 23.752C733.434 17.096 730.063 11.976 725.796 8.392C721.53 4.72266 716.751 2.88799 711.46 2.88799Z" fill="black"/>
</svg>
