<?xml version="1.0" encoding="UTF-8"?><svg id="Capa_2" xmlns="http://www.w3.org/2000/svg" viewBox="0 0 2351.3 560.81"><defs><style>.cls-1{fill:#fff;}.cls-2{fill:#1d1d1b;}</style></defs><g id="Ebene_3"><g><path class="cls-2" d="M1260.52,24.51c-4.04-2.68-11.97-7.01-17.15-6.16-5.61,.92-5.11,2.86-6.39,8.5-1.03,4.55-3.16,9.05-3.16,9.05-100.78-1.77-204.9-1.56-306.63,4.2-32.79,1.87-64.79,5.26-95.71,8.06-9.73,.91-30.58,12.86-33.45,21.81-1.98,6.19,1.23,5.49,8.14,4.76,39.48-2.37,78.71-5.44,117.87-8.44,101.91-5.72,204.42-3.98,305.66-3.71,.02,0-28.47,100.29-30.47,107.21-4.35,15.29-8.1,30.68-12.31,46.01-2.41,8.77-4.91,17.53-7.29,26.32-1.33,4.93-2.92,12.51-4.81,13.23-2.31,.88-10.02,.37-10.02,.36,0,0-.06,3.76-.15,6.75-.21,7.12-2.36,12.2-4.43,18.38-5.25,15.65-13.78,30.79-23.01,44.82-4.24,6.45-8.9,12.46-14.17,18.29-3.06,3.42-16.43,18.48-16.44,18.47,0,0,3.36-11.35,3.89-13.52,1.79-7.25,2.3-16.1,2.26-23.52-.09-15.25-1.38-30.78-3.27-45.94-3.34-26.27-12.18-61.34,1.81-86.03,3.08-5.45,7.46-9.75,13.35-12.5,5.13-2.4,10.66-2.54,14.17-7.42,6.96-9.73-4.26-19.2-14.2-20.38-27.47-3.24-61.25,22.4-80.48,38.56-23.79,20.15-45.92,41.71-72.04,59.81-4.18,2.93-24.08,13.42-24.1,13.4,0,0,1.13-9.68,1.83-12.85,3.19-14.52,5.65-28.9,5.45-43.8-.39-27.95-8.86-52.17-41-58.56-29.99-6.01-57.5,12.89-77.39,32.01-21.28,20.52-35.67,45.6-49,71.03-3.45,6.57-7.41,3.9-14.53,3.71-3,.03-1.53,2.87-4.28,9-5.53,12.3-15.24,24.49-22.89,35.86-17.1,25.45-38.01,51.08-63.18,70.85-18.85,14.99-57.35,37.8-71.96,5.52-11.72-26.12,3.54-61,12.95-85.31,11.42-29.29,27.85-57.45,48.55-81.86,10.2-11.74,47.42-56.42,65.6-34.73-20.76-3.62-35.55,15.05-43.08,30.38-5.99,12.28-16.82,41.51,1.2,51.13,16.83,8.95,34.58-6.76,42.53-18.04,11.91-16.78,20.45-37.03,21.78-57.31,1.34-20.49-2.42-32.69-24.29-39.23-19.58-5.87-43.66,1.13-61.74,8.18-20.6,8.05-40.34,19.3-60.02,29.34-10.07,5.14-20.14,10.33-30.39,15.27-8.3,4.01-19.91,10.7-28.45,13.18,16.36-44.76,35.88-90.52,53.54-134.77,7.85-19.67,14.99-39.59,22.71-59.28,1.74-4.43,4.86-9.13,.65-12.81-2.56-2.23-16.52-1.76-21.06-1.78-39.99-.11-77.04,9.96-111.51,30.21-36.01,21.14-64.4,47.41-90.16,79.5-26.03,32.44-52.19,69.91-71.12,106.71-14.98-14.09-31.46-30.22-47.33-43.02-17.27-13.92-35.22-26.34-56.19-34.79-27.92-11.05-88.27-18.12-88.27,22.93,0,38.87,53.74,57.1,83.26,69.91,21.61,9.54,44.81,14.61,67.74,19.89,15.68,3.6,18.35,2.07,14.27,8.2-3.36,5.04-23.66,44.05-36.4,64.29-19.28,30.61-40.46,64.36-76.42,80.18-31.9,14.15-75.97,12.95-112.78-1.94-29.41-11.89-65.34-35.84-61.73-87.78,2.81-40.47,51.88-73.85,97.2-79.43,38.39-4.73,77.56,19.67,88.41,49.89,4.06,11.42,.29,27.01-9.27,34.55-10.82,8.59-38.19,4.25-40.03-11.29,1.32,2.71,4.41,6.63,8.73,9.04,3.64,2.03,7.5,3.11,11.69,3.18,6.85,.11,15.1-1.86,19.25-6.33,7.25-7.8,8.28-21.21,1.89-30.56-16.49-24.03-62.28-26.14-77.85-4.75-13.76,19.02-2.77,44.8,19.18,57.96,27.1,16.29,61.68,16.46,84.37-1.01,48.16-37.6,.95-92.66-56.42-114.07-56.8-21.2-139,12.69-163.38,62.48-25.18,51.47,7.03,109.19,69.19,134.8,62.46,25.7,123.44,14.74,166.17-21.91,23.75-20.36,38.97-46.63,49.69-63.74,12.75-20.35,40.34-76.49,40.32-76.5,.03,0,2.71,2.54,17.25,26.89,14.97,24.96,25.59,50.77,36.16,77.33,2.94,7.39,5.79,14.8,8.37,22.28,2.03,5.9,4.73,18.9,6.52,25.7,.47,2.18,26.86,1.34,36.5,1.63,8.86,.31,19.67,.99,28.33,1.06,8.19-.88,5.55,1.29,7.83-4.45,4.41-11.14,9.03-26.07,13.91-37.03,11.47-25.79,21.13-52.22,32.62-77.98,6-13.44,12.12-26.78,17.82-40.34,9.65-22.98,9.15-24.18,11.61-25.21,3.4-.98,83.06-42.61,84.35-41.29-6.07,7.17-19.03,19.65-23.78,25.9-6.29,8.3-11.77,17.07-16.92,26.02-10.54,18.33-20.15,37.23-26.99,57.09-10.55,30.86-24.64,81.59,6.88,108.91,33.88,29.2,82.33,10.62,110.63-11.3,17.37-13.33,31.73-29.58,45.58-45.63,7.82-9.06,15.36-18.3,22.78-27.61,5.72-7.18,11.08-17.37,19.05-22.73-3.34,32.61-26.3,85.1,17.83,108.06,38,19.53,80.15-21.23,100.7-43.35,14.44-15.36,26.3-32.71,36.41-50.57,4.17-7.37,6.97-18.17,13.05-24.24,6.02-6.01,17.63-9.3,25.4-13.66,39.2-22.04,68.61-54.37,103.97-79.96,.26,6.8-4.44,14.79-5.84,21.53-1.51,7.31-2.22,14.75-2.4,22.2-.43,17.89,2.34,35.7,4.47,53.46,3.42,29.07,9.94,64.21-9.71,89.89-6.34,8.27-18.44,17.93-30.44,18.69-12.15,.77-24.07-7.86-30.52-16.08-7.67-9.73-13.03-23.93-9.78-35.62,2.75-9.89,12-20.51,24.44-18.68,4.09,.6,7.89,2.36,10.87,4.97,1.34,1.18,2.62,4.61,4.15,5.13,6.12,2.08,9.2-8.07,10.3-11.55,3.59-11.36,1.83-21.81-7.91-30.24-17.23-14.91-43.33-11.6-59.33,2.56-20.06,17.79-20.55,50.84-10.38,73.35,10.69,23.72,31.51,38.4,59.9,43.43,31.09,5.51,60.28-12.15,82.91-28.48,13.78-9.92,24.51-22.73,35.25-35.05,4.23-4.85,8.97-9.33,13.04-14.27,1.7-2.06,10.02-13.07,10.58-12.73-2.29,15.48-7.38,32.46-5.58,48.1,1.4,12.16,6.23,29.99,22.3,31.85,17.09,1.96,30.09-8.36,40.23-18.95,10.31-10.76,21.56-21.78,29.34-34.11,.02,24.88,10.19,55.26,43.16,57.32,12.64,.78,26.22-2.62,36.41-9.34,5.9-3.88,11.65-8.39,16.83-12.96,2.7-2.38,7.4-7.34,9.62-9.85,1.28-1.44,3.72-4.35,4.17-3.86,2.49,2.65,1.71,14.3,2.59,17.12,1.75,5.61,4.67,9.6,10.73,12.33,11.63,5.26,26.14-1.9,35.68-8.2,25.76-17.01,41.29-47.94,59.56-70.57-5.39,15.6-7.93,32.69-10.51,48.8-2.09,13.12-6.08,27.86,9.32,35.17,4.2,2,16.9,6.99,21.76,6.1,6.93-1.26,8.3-10.1,10.03-15.08,5.32-15.38,12.02-30.08,18.4-45.13,12.96-30.55,29.79-60.11,48.42-88.05,9.02-13.52,17.94-26.89,28.16-39.64,9.25-11.52,20.39-28.78,33.93-36.19-1.75,4.56-8.05,16.31-10.3,21.52-2.96,6.9-5.67,13.91-8.26,20.94-5.68,15.38-10.93,30.99-16.24,46.51-10.41,30.41-18.98,61.28-20.04,93.09-.43,13.09,1.02,28.59,14.36,36.43,15.65,9.17,26.34-1.36,37.98-10.48,16.16-12.65,28.42-26.47,41.44-42.1,3.86-4.64,7.78-9.26,11.71-13.85,3.64-4.24,10.34-12.41,15.56-15.44-9.84,14.46-9.25,39.1-6.03,54.75,2.97,14.4,9.38,30.38,26.09,36.04,35.15,11.83,64.09-24.39,83.61-44.91-6.96,17.4-13.24,35.04-21.9,51.99-7.27,14.27-18.52,36.56-30.48,48.65-.33,.33-7.18-.38-17.15-2.05-9.27-1.55-18.68-2.57-28.01-3.77-17.82-2.29-35.22-6.09-53.01-8.22-37.29-4.43-81.62-10.24-118.95-2.8-27.36,5.57-68.45,22.63-71.83,50.7-2.93,24.12,42.93,42.18,64.73,47.81,33.01,8.72,66.59,8.49,100.56,.41,35.78-8.51,70.06-21.51,101.99-37.83,7.94-4.06,15.67-8.38,22.89-13.35,4.83-3.32,15.73-10.38,17.39-11.29,1.86-.55,19.99,2.31,25.5,2.59,8.74,.48,17.44,1.29,26.11,2.24,8.52,.94,17.03,1.93,25.59,2.75,5.97,.59,22,1.85,23.95,2.59,1.21,2.75,10.68,10.21,14.96,12.68,0,0,7.45,1.43,14.69-1.02,8.09-2.74,11.53-7.6,9.35-9.09-.9-.62-1.74-1.28-2.39-1.94,3.92,1.22,19.95,2.06,24.3,2.1,16.98,.2,34.16-1.16,51.17-3.54,35.14-4.89,73.7-12.45,103.84-31.15,12.6-7.79,27.95-16.49,24.08-30.5-2.9-10.51-12.81-17.6-24.14-21.16-14.34-4.5-32.2-6.2-47.86-5.24-7.98,.49-12.76,.87-22.58,1.89-8.16,.84-16.79,2.2-24.99,3.74-31.5,5.96-68.27,17.99-93.36,36.8-6.81,5.12-13.04,10.87-17.87,17.43-2.55,3.46-5.86,10.96-6.74,13.23-1.71,.99-21.21-1.41-26.94-2.09-9.16-1.06-18.31-2.17-27.47-3.2-8.32-.93-24.04-2.48-32.41-4.11,1.22-2.36,7.06-8.65,9.12-11.69,2.5-3.67,9.26-13.16,14.35-17.6,2.46-2.14,4.55,1.76,8.73-.88,19.8-12.52,34.88-25.97,46.11-38.43,.01-.01,.03,.06,.04,.05,11.69-12.8,20.27-25.27,35.48-44.34,4.21-5.41,8.4-10.83,12.56-16.25-4.58,21.89-6.8,55.94,17.35,68.56,24.75,12.88,53.85-5.22,71.04-22.27,20.64-20.38,32.99-46.11,44.04-70.65,4.15-9.13,15.01-33.06,14.98-33.07,0,0,11.56-2.53,22.36-6.86,7.3-2.92,14.24-6.53,20.97-10.47,49.41-29.02,86.43-69.05,139.11-93.48,21.04-9.74,50.05-19.88,71.48-9.55,8.85,4.28,16.6,13.72,9.09,22.64-1.69,2.01-7.39,6.64-6.59,8.13,.86,1.63,8.6,.63,10.75-.02,21.62-6.45,31.56-21.51,33.23-32.5,1.47-9.53-3.47-24.3-19.19-33.29-12.46-7.13-28.58-6.45-39.64-5.01-54.81,7.18-99.81,51.05-140.48,83.09-21.13,16.72-43.02,34.06-68.04,45.89-7.22,3.44-26.64,12.44-27.8,1.91-.54-4.9,3.9-13.86,5.02-18.86,1.28-5.68,2.26-11.39,2.55-17.13,1.04-20.77-8.59-39.4-23.67-53.79-15.29-14.55-40.02-9.72-56.42,2.25-18.91,13.85-32.86,33.46-42.83,53.41-5.14,10.29-9.71,26.58-14.71,36.87-1.38,1.22-10.69,3.65-10.69,3.65,.03,0-8.53,30.32-13.92,42.78-4.57,10.67-9.72,21.19-14.98,31.65-2.35,4.75-16.57,24.44-20.82,29.88-8.62,11.36-42.81,45.38-38.3,31.08,10.14-30.9,38.85-99.75,47.4-130.79,4.54-15.99,8.76-32.03,12.77-48.09,3.24-12.97,7.35-26.3,6.77-39.57,.02-17.4-15.19-30.05-19.09-26.37-3.34,3.16-9.04,15.37-10.65,19.12-3.14,7.38-6.31,14.76-9.51,22.13-6.85-31.39-39.78-37.92-67.53-23.11-27.91,14.91-46.92,41.22-61.77,67.07-3.59,6.26-6.45,13.47-9.85,19.82-.64,1.19-4.24,7.62-5.13,8.38-1.01,.87-8.6,.35-8.6,.34,.01,0-7.43,19.83-13.35,28.29-16.87,24.21-35.84,46.59-56.61,68.52-7.91,8.38-21.9,22.87-21.18,3.62,.46-12.56,2.71-25.09,5.55-37.44,6.71-29.22,16.46-58.11,27.1-86.35,5.33-14.12,11.08-28.08,16.35-42.18,3.75-10.01,7.28-23.17,2.13-33.2-15.07-29.49-46.04,.19-59.84,14.89-18.48,19.94-34.94,42.24-49.91,64.69-8.57,12.86-17.55,25.61-24.75,39.18-11.21,21.07-14.43,28.61-17.8,33.06,1.15-8.98,4.39-22.87,6.05-29.71,2.32-9.48,4.84-18.92,7.28-28.37,4.69-18.19,9.56-36.34,15.45-54.23,5.6-16.96,9.6-30.88-3.25-45.82-5.61-6.53-13.15-12.71-17.56-7.45-3.64,4.36-9.38,18.73-11.35,25.02-5.98,19.22-12.09,38.45-18.64,57.57-.97,2.83-2.4,9.48-4.67,11.95-2.18,2.36-9.86,2.82-9.86,2.82,0,0-2.64,13.92-5.42,21.59-12.68,35.09-36.42,68.27-64.11,95.82,1.98-23.05,10.33-45.07,17.24-67.27,7.63-24.46,14.92-48.98,22.06-73.51,6.01-20.42,19.46-45.02,4.11-63.53-3.14-3.81-6.61-8.47-10.75-11.35-5.97-4.15-6.08-2.52-8.2,3.36-3.97,11.03-8.59,22.02-12.13,33.19-3.49-2.73-2.81-10.99-4.61-15.09-2.38-5.43-6.17-12.4-10.86-16.39-10.72-9.08-30.06-7.5-42.9-4.26-28.07,7.11-47.94,29.53-62.8,52.24-4.88,7.48-9.17,15.31-12.95,23.33-2.11,4.49-4.5,16.38-8.47,19.01-2.59,.95-14.08-.94-14.08-.95,0,0-.73,14.76-1.53,17.91-7.53,29.44-18.57,56.17-37.53,81.31-4.8,6.37-9.81,13.88-15.26,19.88-1.75,1.93-5.15,5.64-6.53,2.93-2.62-5.81-.97-20.82,.06-27.05,1.27-7.61,3.17-15.12,4.88-22.66,7.15-31.43,13.89-62.92,21.49-94.22,4.04-16.63,8.63-33.14,12.5-49.8,3.15-13.43,29.91-118.79,29.89-118.79,0,0,5.46,.16,13.52,.06,75.84,1.28,152.17,4.93,228.43,4.54,7.14-.81,21.5-17.94,10.1-22.53-15.78-2.56-33.91-1.33-50.29-1.65-58.87-1.13-117.44-4.61-175.94-6.03-3.38-.04-23.06-.3-23.06-.32,0,0-1.72-6.84-9.43-11.96ZM297.9,242.46c-8.92-2.06-17.96-3.66-26.82-6.04-31.13-8.31-67.33-23.68-88.25-47.66-8.67-9.88-19.44-27.63-6.78-37.1,9.8-7.33,30.25-4.63,41.63-.66,34.02,12.16,60.23,34.93,83.53,60.44,4.68,5.16,18.51,20.72,22.56,32.3,.42,1.18-11.7,2-25.88-1.28Zm175.77,14.16c-11.16,25.49-22.77,50.37-34.23,75.76-3.69,8.18-7.42,16.33-11.67,25.6-5.68-12.2-10.43-23.38-15.84-34.34-9.69-19.63-21.9-40.84-34.94-58.98-1.99-2.76-1.23-2.6,4.4-2.89,20.4-1.05,40.75-2.1,60.52-6.2,8.89-1.85,18.07-2.88,27.01-4.67,1.8-.36,7.94-1.53,7.74-1.06-.77,1.81-1.3,3.77-3,6.78ZM578.15,23.81c-21.19,44.35-40.58,89.85-60.49,134.85-10,22.58-20.97,51.76-33.01,73.46-2.38,3.76-11.35,4.33-22.02,6.75-12.9,2.93-26.04,5.23-39.29,7.05-12.73,1.75-25.56,3.26-38.58,3.54-4.49,.1-14.29,1.54-18.47,.07-3.83-1.33-12.56-16.66-15.18-19.87-.96-1.34,15.44-29.15,21.63-38.56,20-30.16,52.87-80.78,89.68-114.05,19.29-17.41,40.56-32.5,64.15-43.89,10.68-5.15,21.75-9.52,33.06-13.1,8.05-2.53,25.95-10.03,18.52,3.75Zm310.91,240.99c1.49,6.56,3.92,14.52,9.93,18.99,4.77,3.55,13.5,5.09,19.01,4.9,2.56-.08-9.94,19.98-12.27,23.89-5,8.48-10.95,16.33-16.9,24.28-10.57,14.13-22.62,26.49-37.33,37.43-5.68,4.23-15.45,13.1-24.17,11.18-8.56-1.89-11.4-13.19-12.69-19.6-7.35-36.57,10.66-80.4,25.99-113.04,8.73-18.48,19.44-37.37,34.66-51.88,6.67-6.36,14.36-12.1,22.79-16.28,3.5-2.48,23.33-6.99,29.67,.68-6.71,.49-12.85,2.79-17.52,5.44-6.69,3.78-11.5,9.61-14.5,16.31-7.69,17.17-10.83,39.32-6.66,57.69Zm493.51,11.4c3.35-.86,4.55-.79,4.4-.71-.28,1.38-.45,2.8-1,4.51-1.63,5.04-4.3,12.29-5.38,15.92-3.35,9.58-7.56,18.97-12.11,28.15-9.8,19.74-22.14,39.73-40.11,54.68-20.63,17.1-33.61,1.09-35.44-19.21,.94-42.16,18-90.48,41.62-126.52,8.59-13,25.06-38.32,42.77-41.14,24.12-3.87,19.77,33.27,16.33,45.3-2.81,9.87-8.22,18.58-13.36,27.57-2.85,4.98-6.03,12.7-6.03,12.7,0,0,4.73-.22,8.32-1.24Zm224.93,266.02c-32.25,5.69-101.31,11.8-110.51-24.63-10.56-41.85,65.71-47.84,96.84-47.41,22.95,.55,45.53,2.61,68.24,5.11,22.5,2.48,42.61,7.24,64.46,12.02-29.83,29.65-75.09,47.54-119.03,54.9Zm346.33-102.06c27.55-9.44,69.02-16.18,94.49-2.92,9.57,5.01,18.7,15.85,8.46,25.5-10.44,9.85-36.52,13.96-50.68,17.36-37.76,9.14-75.32,10.34-113.23,9.21,10.61-23.98,33.87-39.78,60.96-49.14Zm-165-85.51c-8.34,14.42-23.11,39.67-41.51,46.66-20.76,7.87-18.53-35.23-17.66-44.45,2.15-21.84,9.37-43.8,18.59-64.23,7.51-14.96,56.67-116.01,82.85-89.68,14.29,14.02,3.3,43.72-4.03,58.76-4.69,9.71-11.64,17.6-18.35,26.59-8.54,11.42,9.69,3.59,14.47,.89-5.88,22.71-22.25,44.67-34.35,65.45Zm238.14-153.45c-8.12,6.69-14.16,13.74-18.4,22.95-7.65,16.71-13.78,47.09,4.26,58.99,4.74,3.11,13.61,8.09,21.47,8.52,.35,1.88-11.24,26.76-13.82,32.06-10.26,21.45-21.53,45.16-38.91,63.51-5.16,5.47-16.25,16.05-25.39,15.42-8.81-.61-10.14-11.19-10.77-17.51-2.3-23.06,1.62-45.46,6.82-68.81,5.22-23.39,12.1-46.64,22.32-68.88,8.35-18.13,19.81-43.1,41.82-50.7,12.25-4.01,19.34-.31,19.34-.31,0,0-6.9,3.26-8.73,4.77Z"/><circle class="cls-1" cx="619.29" cy="251.24" r="11.31"/><circle class="cls-1" cx="509.21" cy="251.24" r="11.31"/><circle class="cls-1" cx="814.24" cy="251.24" r="11.31"/><circle class="cls-1" cx="1082.57" cy="251.24" r="11.31"/><circle class="cls-1" cx="1197.77" cy="251.24" r="11.31"/><circle class="cls-1" cx="1301.73" cy="251.24" r="11.31"/><circle class="cls-1" cx="1413.51" cy="251.24" r="11.31"/><circle class="cls-1" cx="607.29" cy="283.3" r="7.46"/><circle class="cls-1" cx="497.21" cy="283.3" r="7.46"/><circle class="cls-1" cx="182.38" cy="294.8" r="7.46"/><circle class="cls-1" cx="804.24" cy="283.3" r="7.46"/><circle class="cls-1" cx="1084.57" cy="283.3" r="7.46"/><circle class="cls-1" cx="1187.77" cy="283.3" r="7.46"/><circle class="cls-1" cx="1287.73" cy="283.3" r="7.46"/><circle class="cls-1" cx="1403.51" cy="283.3" r="7.46"/></g></g></svg>